<svg width="16" height="16" viewBox="0 0 16 16" fill="none" xmlns="http://www.w3.org/2000/svg">
<path d="M3 12C2.46957 12 1.96086 12.2107 1.58579 12.5858C1.21071 12.9609 1 13.4696 1 14C1 14.5304 1.21071 15.0391 1.58579 15.4142C1.96086 15.7893 2.46957 16 3 16C3.53043 16 4.03914 15.7893 4.41421 15.4142C4.78929 15.0391 5 14.5304 5 14C5 13.4696 4.78929 12.9609 4.41421 12.5858C4.03914 12.2107 3.53043 12 3 12ZM3 12.6667C3.35362 12.6667 3.69276 12.8071 3.94281 13.0572C4.19286 13.3072 4.33333 13.6464 4.33333 14C4.33333 14.3536 4.19286 14.6928 3.94281 14.9428C3.69276 15.1929 3.35362 15.3333 3 15.3333C2.64638 15.3333 2.30724 15.1929 2.05719 14.9428C1.80714 14.6928 1.66667 14.3536 1.66667 14C1.66667 13.6464 1.80714 13.3072 2.05719 13.0572C2.30724 12.8071 2.64638 12.6667 3 12.6667Z" fill="#FC7F7F"/>
<path d="M8 12C7.46957 12 6.96086 12.2107 6.58579 12.5858C6.21071 12.9609 6 13.4696 6 14C6 14.5304 6.21071 15.0391 6.58579 15.4142C6.96086 15.7893 7.46957 16 8 16C8.53043 16 9.03914 15.7893 9.41421 15.4142C9.78929 15.0391 10 14.5304 10 14C10 13.4696 9.78929 12.9609 9.41421 12.5858C9.03914 12.2107 8.53043 12 8 12ZM8 12.6667C8.35362 12.6667 8.69276 12.8071 8.94281 13.0572C9.19286 13.3072 9.33333 13.6464 9.33333 14C9.33333 14.3536 9.19286 14.6928 8.94281 14.9428C8.69276 15.1929 8.35362 15.3333 8 15.3333C7.64638 15.3333 7.30724 15.1929 7.05719 14.9428C6.80714 14.6928 6.66667 14.3536 6.66667 14C6.66667 13.6464 6.80714 13.3072 7.05719 13.0572C7.30724 12.8071 7.64638 12.6667 8 12.6667Z" fill="#FC7F7F"/>
<path d="M13 12C12.4696 12 11.9609 12.2107 11.5858 12.5858C11.2107 12.9609 11 13.4696 11 14C11 14.5304 11.2107 15.0391 11.5858 15.4142C11.9609 15.7893 12.4696 16 13 16C13.5304 16 14.0391 15.7893 14.4142 15.4142C14.7893 15.0391 15 14.5304 15 14C15 13.4696 14.7893 12.9609 14.4142 12.5858C14.0391 12.2107 13.5304 12 13 12ZM13 12.6667C13.3536 12.6667 13.6928 12.8071 13.9428 13.0572C14.1929 13.3072 14.3333 13.6464 14.3333 14C14.3333 14.3536 14.1929 14.6928 13.9428 14.9428C13.6928 15.1929 13.3536 15.3333 13 15.3333C12.6464 15.3333 12.3072 15.1929 12.0572 14.9428C11.8071 14.6928 11.6667 14.3536 11.6667 14C11.6667 13.6464 11.8071 13.3072 12.0572 13.0572C12.3072 12.8071 12.6464 12.6667 13 12.6667Z" fill="#FC7F7F"/>
<path d="M8.9004 3L6 5V3.5C1 5.5 5.5 5 10 11.3672H6C6 9 0 2.5 6 2.5V1L8.9004 3Z" fill="#FC7F7F"/>
<path d="M13 0C12.2044 0 11.4413 0.31607 10.8787 0.87868C10.3161 1.44129 10 2.20435 10 3C10 3.79565 10.3161 4.55871 10.8787 5.12132C11.4413 5.68393 12.2044 6 13 6C13.7956 6 14.5587 5.68393 15.1213 5.12132C15.6839 4.55871 16 3.79565 16 3C16 2.20435 15.6839 1.44129 15.1213 0.87868C14.5587 0.31607 13.7956 0 13 0ZM13 1C13.5304 1 14.0391 1.21071 14.4142 1.58579C14.7893 1.96086 15 2.46957 15 3C15 3.53043 14.7893 4.03914 14.4142 4.41421C14.0391 4.78929 13.5304 5 13 5C12.4696 5 11.9609 4.78929 11.5858 4.41421C11.2107 4.03914 11 3.53043 11 3C11 2.46957 11.2107 1.96086 11.5858 1.58579C11.9609 1.21071 12.4696 1 13 1Z" fill="#FC7F7F"/>
</svg>
